<svg width="35" height="26" viewBox="0 0 35 26" fill="none" xmlns="http://www.w3.org/2000/svg">
  <path d="M33.0159 0.0286C32.6149 0.0279 32.2242 0.1575 31.9014 0.3982L17.7961 10.9281L3.69086 0.3982C3.49283 0.2501 3.26792 0.1429 3.02896 0.0828C2.78999 0.0226 2.54166 0.0107 2.29814 0.0476C2.05462 0.0846 1.82068 0.1698 1.60967 0.2982C1.39867 0.4267 1.21473 0.5959 1.06837 0.7963C0.922001 0.9967 0.816072 1.2243 0.756628 1.4661C0.697184 1.7079 0.68539 1.9592 0.721918 2.2056C0.79569 2.7033 1.06181 3.151 1.46174 3.4501L16.6816 14.8235C17.0041 15.0651 17.3948 15.1956 17.7961 15.1956C18.1974 15.1956 18.5881 15.0651 18.9107 14.8235L34.1305 3.4501C34.4483 3.2131 34.684 2.8806 34.8039 2.4999C34.9238 2.1193 34.9218 1.7101 34.7982 1.3307C34.6746 0.9513 34.4357 0.6211 34.1157 0.3873C33.7956 0.1534 33.4107 0.0279 33.0159 0.0286Z" fill="white"/>
  <path d="M33.0159 9.9805C32.6149 9.9798 32.2242 10.1094 31.9014 10.3501L17.7961 20.88L3.69087 10.3501C3.29094 10.051 2.78996 9.9249 2.29815 9.9996C1.80634 10.0742 1.36397 10.3435 1.06837 10.7482C0.772775 11.1529 0.648154 11.6599 0.721925 12.1575C0.795697 12.6552 1.06182 13.1029 1.46175 13.402L16.6816 24.7754C17.0041 25.017 17.3948 25.1475 17.7961 25.1475C18.1974 25.1475 18.5881 25.017 18.9107 24.7754L34.1305 13.402C34.4483 13.165 34.684 12.8325 34.8039 12.4518C34.9238 12.0712 34.9218 11.662 34.7982 11.2826C34.6746 10.9032 34.4357 10.573 34.1157 10.3392C33.7956 10.1053 33.4107 9.9798 33.0159 9.9805Z" fill="white"/>
</svg>
