<svg xmlns="http://www.w3.org/2000/svg" width="100" height="100" viewBox="0 0 100 100" version="1.1"><path d="M 56.990 13.795 L 57.480 21.500 57.789 14.599 C 57.959 10.804, 57.739 7.337, 57.299 6.894 C 56.860 6.452, 56.720 9.558, 56.990 13.795 M 14.655 22.750 C 14.400 23.163, 15.230 23.500, 16.500 23.500 C 17.770 23.500, 18.600 23.163, 18.345 22.750 C 18.091 22.337, 17.260 22, 16.500 22 C 15.740 22, 14.909 22.337, 14.655 22.750 M 81.655 22.750 C 81.400 23.163, 82.230 23.500, 83.500 23.500 C 84.770 23.500, 85.600 23.163, 85.345 22.750 C 85.091 22.337, 84.260 22, 83.500 22 C 82.740 22, 81.909 22.337, 81.655 22.750 M 20 24.449 C 20 24.724, 21.350 25.647, 23 26.500 C 24.650 27.353, 26 27.826, 26 27.551 C 26 27.276, 24.650 26.353, 23 25.500 C 21.350 24.647, 20 24.174, 20 24.449 M 77.441 25.555 C 75.577 27.049, 75.589 27.067, 77.750 26.020 C 78.987 25.420, 80 24.720, 80 24.465 C 80 23.700, 79.481 23.921, 77.441 25.555 M 11.880 27.250 C 11.225 28.488, 10.036 30.625, 9.239 32 C 7.848 34.398, 7.857 34.419, 9.471 32.500 C 11.464 30.130, 14.261 25, 13.561 25 C 13.291 25, 12.535 26.012, 11.880 27.250 M 88.114 28.989 C 89.347 31.183, 90.519 32.814, 90.718 32.615 C 91.148 32.185, 87.014 25, 86.337 25 C 86.081 25, 86.881 26.795, 88.114 28.989 M 27 28.430 C 27 28.705, 27.900 29.411, 29 30 C 30.100 30.589, 31 30.845, 31 30.570 C 31 30.295, 30.100 29.589, 29 29 C 27.900 28.411, 27 28.155, 27 28.430 M 70.441 29.555 C 68.577 31.049, 68.589 31.067, 70.750 30.020 C 71.987 29.420, 73 28.720, 73 28.465 C 73 27.700, 72.481 27.921, 70.441 29.555 M 34.500 33 C 34.840 33.550, 35.343 34, 35.618 34 C 35.893 34, 35.840 33.550, 35.500 33 C 35.160 32.450, 34.657 32, 34.382 32 C 34.107 32, 34.160 32.450, 34.500 33 M 63.441 33.555 C 61.577 35.049, 61.589 35.067, 63.750 34.020 C 64.987 33.420, 66 32.720, 66 32.465 C 66 31.700, 65.481 31.921, 63.441 33.555 M 10 35.449 C 10 35.724, 11.350 36.647, 13 37.500 C 14.650 38.353, 16 38.826, 16 38.551 C 16 38.276, 14.650 37.353, 13 36.500 C 11.350 35.647, 10 35.174, 10 35.449 M 39.333 35.667 C 39.700 36.033, 40.300 36.033, 40.667 35.667 C 41.033 35.300, 40.733 35, 40 35 C 39.267 35, 38.967 35.300, 39.333 35.667 M 59.333 35.667 C 59.700 36.033, 60.300 36.033, 60.667 35.667 C 61.033 35.300, 60.733 35, 60 35 C 59.267 35, 58.967 35.300, 59.333 35.667 M 86.750 36.572 C 83.012 38.600, 83.239 39.445, 87 37.500 C 88.650 36.647, 90 35.735, 90 35.474 C 90 34.831, 89.893 34.867, 86.750 36.572 M 17 39.430 C 17 39.705, 17.900 40.411, 19 41 C 20.100 41.589, 21 41.845, 21 41.570 C 21 41.295, 20.100 40.589, 19 40 C 17.900 39.411, 17 39.155, 17 39.430 M 80.441 40.555 C 78.577 42.049, 78.589 42.067, 80.750 41.020 C 81.987 40.420, 83 39.720, 83 39.465 C 83 38.700, 82.481 38.921, 80.441 40.555 M 24 43.430 C 24 43.705, 24.900 44.411, 26 45 C 27.100 45.589, 28 45.845, 28 45.570 C 28 45.295, 27.100 44.589, 26 44 C 24.900 43.411, 24 43.155, 24 43.430 M 73.441 44.555 C 71.577 46.049, 71.589 46.067, 73.750 45.020 C 74.987 44.420, 76 43.720, 76 43.465 C 76 42.700, 75.481 42.921, 73.441 44.555 M 32 50 C 32 50.733, 32.300 51.033, 32.667 50.667 C 33.033 50.300, 33.033 49.700, 32.667 49.333 C 32.300 48.967, 32 49.267, 32 50 M 67 50 C 67 50.733, 67.300 51.033, 67.667 50.667 C 68.033 50.300, 68.033 49.700, 67.667 49.333 C 67.300 48.967, 67 49.267, 67 50 M 25.441 55.555 C 23.577 57.049, 23.589 57.067, 25.750 56.020 C 26.988 55.420, 28 54.720, 28 54.465 C 28 53.700, 27.481 53.921, 25.441 55.555 M 72 54.430 C 72 54.705, 72.900 55.411, 74 56 C 75.100 56.589, 76 56.845, 76 56.570 C 76 56.295, 75.100 55.589, 74 55 C 72.900 54.411, 72 54.155, 72 54.430 M 18.441 59.555 C 16.577 61.049, 16.589 61.067, 18.750 60.020 C 19.988 59.420, 21 58.720, 21 58.465 C 21 57.700, 20.481 57.921, 18.441 59.555 M 79.500 59 C 79.840 59.550, 80.343 60, 80.618 60 C 80.893 60, 80.840 59.550, 80.500 59 C 80.160 58.450, 79.657 58, 79.382 58 C 79.107 58, 79.160 58.450, 79.500 59 M 12.750 62.572 C 9.012 64.600, 9.239 65.445, 13 63.500 C 14.650 62.647, 16 61.735, 16 61.474 C 16 60.831, 15.893 60.867, 12.750 62.572 M 84 61.449 C 84 61.724, 85.350 62.647, 87 63.500 C 88.650 64.353, 90 64.826, 90 64.551 C 90 64.276, 88.650 63.353, 87 62.500 C 85.350 61.647, 84 61.174, 84 61.449 M 39.333 64.667 C 39.700 65.033, 40.300 65.033, 40.667 64.667 C 41.033 64.300, 40.733 64, 40 64 C 39.267 64, 38.967 64.300, 39.333 64.667 M 59.333 64.667 C 59.700 65.033, 60.300 65.033, 60.667 64.667 C 61.033 64.300, 60.733 64, 60 64 C 59.267 64, 58.967 64.300, 59.333 64.667 M 10.074 69.500 C 11.309 71.700, 12.749 73.950, 13.274 74.500 C 14.772 76.069, 11.347 69.734, 9.490 67.500 C 8.576 66.400, 8.839 67.300, 10.074 69.500 M 34.405 67.155 C 33.962 67.870, 34.130 68.038, 34.845 67.595 C 35.998 66.883, 36.393 66, 35.559 66 C 35.316 66, 34.797 66.520, 34.405 67.155 M 64.500 67 C 64.840 67.550, 65.343 68, 65.618 68 C 65.893 68, 65.840 67.550, 65.500 67 C 65.160 66.450, 64.657 66, 64.382 66 C 64.107 66, 64.160 66.450, 64.500 67 M 28.441 70.555 C 26.577 72.049, 26.589 72.067, 28.750 71.020 C 29.988 70.420, 31 69.720, 31 69.465 C 31 68.700, 30.481 68.921, 28.441 70.555 M 69 69.430 C 69 69.705, 69.900 70.411, 71 71 C 72.100 71.589, 73 71.845, 73 71.570 C 73 71.295, 72.100 70.589, 71 70 C 69.900 69.411, 69 69.155, 69 69.430 M 86.950 73.098 C 85.279 76.373, 84.442 77.087, 82.786 76.654 C 81.304 76.267, 81.020 76.420, 81.789 77.189 C 83.509 78.909, 85.751 77.409, 87.975 73.049 C 89.111 70.822, 89.816 69, 89.541 69 C 89.266 69, 88.100 70.844, 86.950 73.098 M 22.750 73.572 C 19.012 75.600, 19.239 76.445, 23 74.500 C 24.650 73.647, 26 72.735, 26 72.474 C 26 71.831, 25.893 71.867, 22.750 73.572 M 74 72.449 C 74 72.724, 75.350 73.647, 77 74.500 C 78.650 75.353, 80 75.826, 80 75.551 C 80 75.276, 78.650 74.353, 77 73.500 C 75.350 72.647, 74 72.174, 74 72.449 M 14.655 77.250 C 14.909 77.662, 15.740 78, 16.500 78 C 17.260 78, 18.091 77.662, 18.345 77.250 C 18.600 76.838, 17.770 76.500, 16.500 76.500 C 15.230 76.500, 14.400 76.838, 14.655 77.250 M 55 94 C 54.099 94.582, 53.975 94.975, 54.691 94.985 C 55.346 94.993, 56.160 94.550, 56.500 94 C 57.267 92.758, 56.921 92.758, 55 94" stroke="none" fill="#5f1b14" fill-rule="evenodd"/><path d="M 43.709 6.624 C 43.319 7.014, 43 13.278, 43 20.544 C 43 30.957, 42.688 34.014, 41.528 34.977 C 40.323 35.977, 37.971 35.002, 28.562 29.599 C 22.241 25.970, 16.646 23, 16.130 23 C 15.216 23, 8.555 33.969, 9.184 34.437 C 9.358 34.566, 14.550 37.558, 20.722 41.086 C 31.815 47.426, 33.410 48.809, 32.441 51.250 C 32.168 51.938, 26.895 55.386, 20.722 58.914 C 14.550 62.442, 9.358 65.434, 9.184 65.563 C 8.555 66.031, 15.216 77, 16.130 77 C 16.646 77, 22.241 74.030, 28.562 70.401 C 37.860 65.062, 40.332 64.030, 41.500 65 C 42.603 65.916, 43.011 69.427, 43.222 79.850 L 43.500 93.500 50 93.500 L 56.500 93.500 56.778 79.850 C 56.989 69.427, 57.397 65.916, 58.500 65 C 59.668 64.030, 62.140 65.062, 71.438 70.401 C 77.759 74.030, 83.354 77, 83.870 77 C 84.784 77, 91.445 66.031, 90.816 65.563 C 90.642 65.434, 85.450 62.442, 79.278 58.914 C 73.105 55.386, 67.832 51.938, 67.559 51.250 C 66.590 48.809, 68.185 47.426, 79.278 41.086 C 85.450 37.558, 90.642 34.566, 90.816 34.437 C 91.445 33.969, 84.784 23, 83.870 23 C 83.354 23, 77.759 25.970, 71.438 29.599 C 62.140 34.938, 59.668 35.970, 58.500 35 C 57.397 34.084, 56.989 30.573, 56.778 20.150 L 56.500 6.500 50.459 6.208 C 47.136 6.047, 44.099 6.234, 43.709 6.624" stroke="none" fill="#f34434" fill-rule="evenodd"/></svg>