<svg width="158" height="213" viewBox="0 0 158 213" fill="none" xmlns="http://www.w3.org/2000/svg">
<g filter="url(#filter0_d_356_3089)">
<path d="M4.00293 24.9658C4.00293 13.9201 12.9572 4.96582 24.0029 4.96582H154.003V188.966C154.003 200.012 145.049 208.966 134.003 208.966H24.0029C12.9572 208.966 4.00293 200.012 4.00293 188.966V24.9658Z" fill="#2A3647"/>
<path d="M31.412 43.4658V31.8295H32.8211V37.0113H39.0257V31.8295H40.4347V43.4658H39.0257V38.2613H32.8211V43.4658H31.412ZM46.733 43.6476C45.8921 43.6476 45.1668 43.462 44.5569 43.0908C43.9508 42.7158 43.483 42.1931 43.1535 41.5226C42.8277 40.8484 42.6649 40.0643 42.6649 39.1704C42.6649 38.2764 42.8277 37.4885 43.1535 36.8067C43.483 36.1211 43.9414 35.587 44.5285 35.2045C45.1194 34.8181 45.8088 34.6249 46.5967 34.6249C47.0512 34.6249 47.5001 34.7007 47.9433 34.8522C48.3865 35.0037 48.7899 35.2499 49.1535 35.5908C49.5171 35.9279 49.8069 36.3749 50.0228 36.9317C50.2387 37.4885 50.3467 38.1742 50.3467 38.9885V39.5567H43.6194V38.3976H48.983C48.983 37.9052 48.8846 37.4658 48.6876 37.0795C48.4944 36.6931 48.2179 36.3882 47.858 36.1647C47.502 35.9412 47.0815 35.8295 46.5967 35.8295C46.0626 35.8295 45.6005 35.962 45.2103 36.2272C44.824 36.4885 44.5266 36.8295 44.3183 37.2499C44.1099 37.6704 44.0058 38.1211 44.0058 38.6022V39.3749C44.0058 40.034 44.1194 40.5927 44.3467 41.051C44.5777 41.5056 44.8978 41.8522 45.3069 42.0908C45.716 42.3257 46.1914 42.4431 46.733 42.4431C47.0853 42.4431 47.4035 42.3939 47.6876 42.2954C47.9755 42.1931 48.2236 42.0416 48.4319 41.8408C48.6402 41.6363 48.8012 41.3825 48.9149 41.0795L50.2103 41.4431C50.074 41.8825 49.8448 42.2689 49.5228 42.6022C49.2008 42.9317 48.8031 43.1893 48.3296 43.3749C47.8561 43.5567 47.324 43.6476 46.733 43.6476ZM53.7274 31.8295V43.4658H52.3865V31.8295H53.7274ZM56.1833 46.7385V34.7385H57.4788V36.1249H57.6379C57.7364 35.9734 57.8727 35.7802 58.047 35.5454C58.225 35.3067 58.4788 35.0946 58.8083 34.909C59.1417 34.7196 59.5924 34.6249 60.1606 34.6249C60.8954 34.6249 61.5432 34.8086 62.1038 35.176C62.6644 35.5435 63.1019 36.0643 63.4163 36.7385C63.7307 37.4128 63.8879 38.2082 63.8879 39.1249C63.8879 40.0492 63.7307 40.8503 63.4163 41.5283C63.1019 42.2026 62.6663 42.7253 62.1095 43.0965C61.5526 43.4639 60.9106 43.6476 60.1833 43.6476C59.6227 43.6476 59.1739 43.5548 58.8367 43.3692C58.4996 43.1798 58.2401 42.9658 58.0583 42.7272C57.8765 42.4848 57.7364 42.284 57.6379 42.1249H57.5242V46.7385H56.1833ZM57.5015 39.1022C57.5015 39.7613 57.5981 40.3427 57.7913 40.8465C57.9845 41.3465 58.2667 41.7385 58.6379 42.0226C59.0091 42.3029 59.4636 42.4431 60.0015 42.4431C60.5621 42.4431 61.0299 42.2954 61.4049 41.9999C61.7837 41.7007 62.0678 41.2992 62.2572 40.7954C62.4504 40.2878 62.547 39.7234 62.547 39.1022C62.547 38.4885 62.4523 37.9355 62.2629 37.4431C62.0773 36.9469 61.7951 36.5548 61.4163 36.267C61.0413 35.9753 60.5697 35.8295 60.0015 35.8295C59.4561 35.8295 58.9977 35.9677 58.6265 36.2442C58.2553 36.517 57.975 36.8995 57.7856 37.392C57.5962 37.8806 57.5015 38.4507 57.5015 39.1022Z" fill="#CDCDCD"/>
<path d="M31.412 89.4658V77.8295H32.8211V88.2158H38.2302V89.4658H31.412ZM43.8893 89.6476C43.0484 89.6476 42.323 89.462 41.7132 89.0908C41.1071 88.7158 40.6393 88.1931 40.3097 87.5226C39.984 86.8484 39.8211 86.0643 39.8211 85.1704C39.8211 84.2764 39.984 83.4885 40.3097 82.8067C40.6393 82.1211 41.0976 81.587 41.6847 81.2045C42.2757 80.8181 42.9651 80.6249 43.7529 80.6249C44.2075 80.6249 44.6563 80.7007 45.0995 80.8522C45.5427 81.0037 45.9461 81.2499 46.3097 81.5908C46.6734 81.9279 46.9632 82.3749 47.1791 82.9317C47.395 83.4885 47.5029 84.1742 47.5029 84.9885V85.5567H40.7757V84.3976H46.1393C46.1393 83.9052 46.0408 83.4658 45.8438 83.0795C45.6507 82.6931 45.3741 82.3882 45.0143 82.1647C44.6582 81.9412 44.2378 81.8295 43.7529 81.8295C43.2188 81.8295 42.7567 81.962 42.3666 82.2272C41.9802 82.4885 41.6829 82.8295 41.4745 83.2499C41.2662 83.6704 41.162 84.1211 41.162 84.6022V85.3749C41.162 86.034 41.2757 86.5927 41.5029 87.051C41.734 87.5056 42.0541 87.8522 42.4632 88.0908C42.8722 88.3257 43.3476 88.4431 43.8893 88.4431C44.2416 88.4431 44.5597 88.3939 44.8438 88.2954C45.1317 88.1931 45.3798 88.0416 45.5882 87.8408C45.7965 87.6363 45.9575 87.3825 46.0711 87.0795L47.3666 87.4431C47.2302 87.8825 47.001 88.2689 46.6791 88.6022C46.3571 88.9317 45.9594 89.1893 45.4859 89.3749C45.0124 89.5567 44.4802 89.6476 43.8893 89.6476ZM53.0654 92.9204C52.4177 92.9204 51.8609 92.837 51.395 92.6704C50.9291 92.5075 50.5408 92.2916 50.2302 92.0226C49.9234 91.7575 49.6791 91.4734 49.4972 91.1704L50.5654 90.4204C50.6866 90.5795 50.8401 90.7613 51.0257 90.9658C51.2113 91.1742 51.4651 91.3541 51.787 91.5056C52.1128 91.6609 52.5389 91.7385 53.0654 91.7385C53.77 91.7385 54.3514 91.5681 54.8097 91.2272C55.2681 90.8863 55.4972 90.3522 55.4972 89.6249V87.8522H55.3836C55.2851 88.0113 55.145 88.2082 54.9632 88.4431C54.7851 88.6742 54.5276 88.8806 54.1904 89.0624C53.8571 89.2404 53.4063 89.3295 52.8382 89.3295C52.1336 89.3295 51.501 89.1628 50.9404 88.8295C50.3836 88.4961 49.9423 88.0113 49.6166 87.3749C49.2946 86.7385 49.1336 85.9658 49.1336 85.0567C49.1336 84.1628 49.2908 83.3844 49.6052 82.7215C49.9196 82.0548 50.3571 81.5397 50.9177 81.176C51.4783 80.8086 52.126 80.6249 52.8609 80.6249C53.4291 80.6249 53.8798 80.7196 54.2132 80.909C54.5503 81.0946 54.8079 81.3067 54.9859 81.5454C55.1677 81.7802 55.3079 81.9734 55.4063 82.1249H55.5427V80.7385H56.8382V89.7158C56.8382 90.4658 56.6677 91.0757 56.3268 91.5454C55.9897 92.0189 55.5351 92.3654 54.9632 92.5851C54.395 92.8086 53.7624 92.9204 53.0654 92.9204ZM53.02 88.1249C53.5579 88.1249 54.0124 88.0018 54.3836 87.7556C54.7548 87.5094 55.037 87.1552 55.2302 86.6931C55.4234 86.231 55.52 85.6779 55.52 85.034C55.52 84.4052 55.4253 83.8503 55.2359 83.3692C55.0465 82.8882 54.7662 82.5113 54.395 82.2385C54.0238 81.9658 53.5654 81.8295 53.02 81.8295C52.4518 81.8295 51.9783 81.9734 51.5995 82.2613C51.2245 82.5492 50.9423 82.9355 50.7529 83.4204C50.5673 83.9052 50.4745 84.4431 50.4745 85.034C50.4745 85.6401 50.5692 86.176 50.7586 86.642C50.9518 87.1041 51.2359 87.4677 51.6109 87.7329C51.9897 87.9942 52.4594 88.1249 53.02 88.1249ZM61.8609 89.6704C61.3079 89.6704 60.806 89.5662 60.3552 89.3579C59.9044 89.1457 59.5465 88.8408 59.2813 88.4431C59.0162 88.0416 58.8836 87.5567 58.8836 86.9885C58.8836 86.4885 58.9821 86.0832 59.1791 85.7726C59.376 85.4582 59.6393 85.212 59.9688 85.034C60.2984 84.856 60.662 84.7234 61.0597 84.6363C61.4613 84.5454 61.8647 84.4734 62.27 84.4204C62.8003 84.3522 63.2302 84.301 63.5597 84.267C63.8931 84.2291 64.1355 84.1666 64.287 84.0795C64.4423 83.9923 64.52 83.8408 64.52 83.6249V83.5795C64.52 83.0189 64.3666 82.5832 64.0597 82.2726C63.7567 81.962 63.2965 81.8067 62.6791 81.8067C62.0389 81.8067 61.537 81.9469 61.1734 82.2272C60.8097 82.5075 60.5541 82.8067 60.4063 83.1249L59.1336 82.6704C59.3609 82.1401 59.6639 81.7272 60.0427 81.4317C60.4253 81.1325 60.8419 80.9242 61.2927 80.8067C61.7472 80.6855 62.1942 80.6249 62.6336 80.6249C62.9139 80.6249 63.2359 80.659 63.5995 80.7272C63.9669 80.7916 64.3211 80.926 64.662 81.1306C65.0067 81.3351 65.2927 81.6439 65.52 82.0567C65.7472 82.4696 65.8609 83.0226 65.8609 83.7158V89.4658H64.52V88.284H64.4518C64.3609 88.4734 64.2094 88.676 63.9972 88.892C63.7851 89.1079 63.5029 89.2916 63.1507 89.4431C62.7984 89.5946 62.3685 89.6704 61.8609 89.6704ZM62.0654 88.4658C62.5957 88.4658 63.0427 88.3617 63.4063 88.1533C63.7738 87.945 64.0503 87.676 64.2359 87.3465C64.4253 87.017 64.52 86.6704 64.52 86.3067V85.0795C64.4632 85.1476 64.3382 85.2101 64.145 85.267C63.9556 85.32 63.7359 85.3673 63.4859 85.409C63.2397 85.4469 62.9991 85.481 62.7643 85.5113C62.5332 85.5378 62.3457 85.5605 62.2018 85.5795C61.8533 85.6249 61.5276 85.6988 61.2245 85.801C60.9253 85.8995 60.6829 86.0492 60.4972 86.2499C60.3154 86.4469 60.2245 86.7158 60.2245 87.0567C60.2245 87.5226 60.3969 87.8749 60.7416 88.1135C61.0901 88.3484 61.5313 88.4658 62.0654 88.4658ZM69.6492 77.8295V89.4658H68.3083V77.8295H69.6492ZM86.0143 77.8295V89.4658H84.6507L78.3097 80.3295H78.1961V89.4658H76.787V77.8295H78.1507L84.5143 86.9885H84.6279V77.8295H86.0143ZM92.1975 89.6476C91.4097 89.6476 90.7184 89.4601 90.1237 89.0851C89.5328 88.7101 89.0706 88.1855 88.7373 87.5113C88.4078 86.837 88.243 86.0492 88.243 85.1476C88.243 84.2385 88.4078 83.445 88.7373 82.767C89.0706 82.0889 89.5328 81.5624 90.1237 81.1874C90.7184 80.8124 91.4097 80.6249 92.1975 80.6249C92.9854 80.6249 93.6748 80.8124 94.2657 81.1874C94.8604 81.5624 95.3225 82.0889 95.6521 82.767C95.9854 83.445 96.1521 84.2385 96.1521 85.1476C96.1521 86.0492 95.9854 86.837 95.6521 87.5113C95.3225 88.1855 94.8604 88.7101 94.2657 89.0851C93.6748 89.4601 92.9854 89.6476 92.1975 89.6476ZM92.1975 88.4431C92.796 88.4431 93.2884 88.2897 93.6748 87.9829C94.0612 87.676 94.3472 87.2726 94.5328 86.7726C94.7184 86.2726 94.8112 85.731 94.8112 85.1476C94.8112 84.5643 94.7184 84.0207 94.5328 83.517C94.3472 83.0132 94.0612 82.606 93.6748 82.2954C93.2884 81.9848 92.796 81.8295 92.1975 81.8295C91.599 81.8295 91.1066 81.9848 90.7203 82.2954C90.3339 82.606 90.0479 83.0132 89.8623 83.517C89.6767 84.0207 89.5839 84.5643 89.5839 85.1476C89.5839 85.731 89.6767 86.2726 89.8623 86.7726C90.0479 87.2726 90.3339 87.676 90.7203 87.9829C91.1066 88.2897 91.599 88.4431 92.1975 88.4431ZM101.994 80.7385V81.8749H97.4717V80.7385H101.994ZM98.7899 78.6476H100.131V86.9658C100.131 87.3446 100.186 87.6287 100.296 87.8181C100.409 88.0037 100.553 88.1287 100.727 88.1931C100.905 88.2537 101.093 88.284 101.29 88.284C101.438 88.284 101.559 88.2764 101.653 88.2613C101.748 88.2423 101.824 88.2272 101.881 88.2158L102.153 89.4204C102.063 89.4545 101.936 89.4885 101.773 89.5226C101.61 89.5605 101.403 89.5795 101.153 89.5795C100.775 89.5795 100.403 89.498 100.04 89.3351C99.68 89.1723 99.3808 88.9242 99.1421 88.5908C98.9073 88.2575 98.7899 87.837 98.7899 87.3295V78.6476ZM104.011 89.4658V80.7385H105.352V89.4658H104.011ZM104.693 79.284C104.432 79.284 104.207 79.195 104.017 79.017C103.832 78.8389 103.739 78.6249 103.739 78.3749C103.739 78.1249 103.832 77.9109 104.017 77.7329C104.207 77.5548 104.432 77.4658 104.693 77.4658C104.955 77.4658 105.178 77.5548 105.364 77.7329C105.553 77.9109 105.648 78.1249 105.648 78.3749C105.648 78.6249 105.553 78.8389 105.364 79.017C105.178 79.195 104.955 79.284 104.693 79.284ZM111.354 89.6476C110.536 89.6476 109.831 89.4545 109.24 89.0681C108.649 88.6817 108.195 88.1495 107.877 87.4715C107.558 86.7935 107.399 86.0189 107.399 85.1476C107.399 84.2613 107.562 83.4791 107.888 82.801C108.217 82.1192 108.676 81.587 109.263 81.2045C109.854 80.8181 110.543 80.6249 111.331 80.6249C111.945 80.6249 112.498 80.7385 112.99 80.9658C113.483 81.1931 113.886 81.5113 114.2 81.9204C114.515 82.3295 114.71 82.8067 114.786 83.3522H113.445C113.342 82.9545 113.115 82.6022 112.763 82.2954C112.414 81.9848 111.945 81.8295 111.354 81.8295C110.831 81.8295 110.373 81.9658 109.979 82.2385C109.589 82.5075 109.284 82.8882 109.064 83.3806C108.848 83.8692 108.74 84.4431 108.74 85.1022C108.74 85.7764 108.846 86.3635 109.058 86.8635C109.274 87.3635 109.577 87.7518 109.967 88.0283C110.361 88.3048 110.823 88.4431 111.354 88.4431C111.702 88.4431 112.019 88.3825 112.303 88.2613C112.587 88.1401 112.827 87.9658 113.024 87.7385C113.221 87.5113 113.361 87.2385 113.445 86.9204H114.786C114.71 87.4355 114.522 87.8995 114.223 88.3124C113.928 88.7215 113.536 89.0473 113.047 89.2897C112.562 89.5283 111.998 89.6476 111.354 89.6476ZM120.405 89.6476C119.564 89.6476 118.839 89.462 118.229 89.0908C117.623 88.7158 117.155 88.1931 116.825 87.5226C116.5 86.8484 116.337 86.0643 116.337 85.1704C116.337 84.2764 116.5 83.4885 116.825 82.8067C117.155 82.1211 117.613 81.587 118.2 81.2045C118.791 80.8181 119.481 80.6249 120.269 80.6249C120.723 80.6249 121.172 80.7007 121.615 80.8522C122.058 81.0037 122.462 81.2499 122.825 81.5908C123.189 81.9279 123.479 82.3749 123.695 82.9317C123.911 83.4885 124.019 84.1742 124.019 84.9885V85.5567H117.291V84.3976H122.655C122.655 83.9052 122.556 83.4658 122.359 83.0795C122.166 82.6931 121.89 82.3882 121.53 82.1647C121.174 81.9412 120.753 81.8295 120.269 81.8295C119.734 81.8295 119.272 81.962 118.882 82.2272C118.496 82.4885 118.198 82.8295 117.99 83.2499C117.782 83.6704 117.678 84.1211 117.678 84.6022V85.3749C117.678 86.034 117.791 86.5927 118.019 87.051C118.25 87.5056 118.57 87.8522 118.979 88.0908C119.388 88.3257 119.863 88.4431 120.405 88.4431C120.757 88.4431 121.075 88.3939 121.359 88.2954C121.647 88.1931 121.895 88.0416 122.104 87.8408C122.312 87.6363 122.473 87.3825 122.587 87.0795L123.882 87.4431C123.746 87.8825 123.517 88.2689 123.195 88.6022C122.873 88.9317 122.475 89.1893 122.002 89.3749C121.528 89.5567 120.996 89.6476 120.405 89.6476Z" fill="#CDCDCD"/>
<path d="M31.412 135.466V123.829H35.3438C36.2567 123.829 37.0029 123.994 37.5825 124.324C38.1658 124.65 38.5976 125.091 38.8779 125.648C39.1582 126.204 39.2984 126.826 39.2984 127.511C39.2984 128.197 39.1582 128.82 38.8779 129.381C38.6014 129.941 38.1734 130.388 37.5938 130.722C37.0143 131.051 36.2719 131.216 35.3666 131.216H32.5484V129.966H35.3211C35.9461 129.966 36.448 129.858 36.8268 129.642C37.2056 129.426 37.4802 129.134 37.6507 128.767C37.8249 128.396 37.912 127.977 37.912 127.511C37.912 127.045 37.8249 126.629 37.6507 126.261C37.4802 125.894 37.2037 125.606 36.8211 125.398C36.4385 125.186 35.931 125.079 35.2984 125.079H32.8211V135.466H31.412ZM41.3865 135.466V126.739H42.6819V128.057H42.7728C42.9319 127.625 43.2198 127.275 43.6365 127.006C44.0531 126.737 44.5228 126.602 45.0455 126.602C45.144 126.602 45.2671 126.604 45.4149 126.608C45.5626 126.612 45.6743 126.617 45.7501 126.625V127.989C45.7046 127.977 45.6005 127.96 45.4376 127.937C45.2785 127.911 45.1099 127.898 44.9319 127.898C44.5077 127.898 44.1289 127.987 43.7955 128.165C43.466 128.339 43.2046 128.581 43.0115 128.892C42.8221 129.199 42.7274 129.549 42.7274 129.943V135.466H41.3865ZM47.3396 135.466V126.739H48.6805V135.466H47.3396ZM48.0214 125.284C47.76 125.284 47.5347 125.195 47.3453 125.017C47.1597 124.839 47.0669 124.625 47.0669 124.375C47.0669 124.125 47.1597 123.911 47.3453 123.733C47.5347 123.555 47.76 123.466 48.0214 123.466C48.2828 123.466 48.5062 123.555 48.6919 123.733C48.8812 123.911 48.9759 124.125 48.9759 124.375C48.9759 124.625 48.8812 124.839 48.6919 125.017C48.5062 125.195 48.2828 125.284 48.0214 125.284ZM58.2728 126.739L55.0455 135.466H53.6819L50.4546 126.739H51.9092L54.3183 133.693H54.4092L56.8183 126.739H58.2728ZM62.3453 135.67C61.7922 135.67 61.2903 135.566 60.8396 135.358C60.3888 135.146 60.0309 134.841 59.7657 134.443C59.5006 134.042 59.368 133.557 59.368 132.989C59.368 132.489 59.4665 132.083 59.6634 131.773C59.8604 131.458 60.1237 131.212 60.4532 131.034C60.7828 130.856 61.1464 130.723 61.5441 130.636C61.9456 130.545 62.349 130.473 62.7544 130.42C63.2847 130.352 63.7146 130.301 64.0441 130.267C64.3775 130.229 64.6199 130.167 64.7714 130.079C64.9267 129.992 65.0044 129.841 65.0044 129.625V129.579C65.0044 129.019 64.8509 128.583 64.5441 128.273C64.2411 127.962 63.7809 127.807 63.1634 127.807C62.5233 127.807 62.0214 127.947 61.6578 128.227C61.2941 128.507 61.0384 128.807 60.8907 129.125L59.618 128.67C59.8453 128.14 60.1483 127.727 60.5271 127.432C60.9097 127.132 61.3263 126.924 61.7771 126.807C62.2316 126.686 62.6786 126.625 63.118 126.625C63.3983 126.625 63.7203 126.659 64.0839 126.727C64.4513 126.792 64.8055 126.926 65.1464 127.131C65.4911 127.335 65.7771 127.644 66.0044 128.057C66.2316 128.47 66.3453 129.023 66.3453 129.716V135.466H65.0044V134.284H64.9362C64.8453 134.473 64.6937 134.676 64.4816 134.892C64.2695 135.108 63.9873 135.292 63.635 135.443C63.2828 135.595 62.8528 135.67 62.3453 135.67ZM62.5498 134.466C63.0801 134.466 63.5271 134.362 63.8907 134.153C64.2581 133.945 64.5347 133.676 64.7203 133.347C64.9097 133.017 65.0044 132.67 65.0044 132.307V131.079C64.9475 131.148 64.8225 131.21 64.6294 131.267C64.44 131.32 64.2203 131.367 63.9703 131.409C63.724 131.447 63.4835 131.481 63.2487 131.511C63.0176 131.538 62.8301 131.561 62.6862 131.579C62.3377 131.625 62.0119 131.699 61.7089 131.801C61.4097 131.9 61.1672 132.049 60.9816 132.25C60.7998 132.447 60.7089 132.716 60.7089 133.057C60.7089 133.523 60.8812 133.875 61.2259 134.114C61.5744 134.348 62.0157 134.466 62.5498 134.466ZM72.3382 135.648C71.52 135.648 70.8154 135.454 70.2245 135.068C69.6336 134.682 69.1791 134.15 68.8609 133.472C68.5427 132.793 68.3836 132.019 68.3836 131.148C68.3836 130.261 68.5465 129.479 68.8722 128.801C69.2018 128.119 69.6601 127.587 70.2472 127.204C70.8382 126.818 71.5276 126.625 72.3154 126.625C72.9291 126.625 73.4821 126.739 73.9745 126.966C74.4669 127.193 74.8704 127.511 75.1847 127.92C75.4991 128.329 75.6942 128.807 75.77 129.352H74.4291C74.3268 128.954 74.0995 128.602 73.7472 128.295C73.3988 127.985 72.9291 127.829 72.3382 127.829C71.8154 127.829 71.3571 127.966 70.9632 128.239C70.573 128.507 70.2681 128.888 70.0484 129.381C69.8325 129.869 69.7245 130.443 69.7245 131.102C69.7245 131.776 69.8306 132.364 70.0427 132.864C70.2586 133.364 70.5616 133.752 70.9518 134.028C71.3457 134.305 71.8079 134.443 72.3382 134.443C72.6866 134.443 73.0029 134.382 73.287 134.261C73.5711 134.14 73.8116 133.966 74.0086 133.739C74.2056 133.511 74.3457 133.239 74.4291 132.92H75.77C75.6942 133.436 75.5067 133.9 75.2075 134.312C74.912 134.722 74.52 135.047 74.0313 135.29C73.5465 135.528 72.9821 135.648 72.3382 135.648ZM78.5938 138.739C78.3666 138.739 78.1639 138.72 77.9859 138.682C77.8079 138.648 77.6847 138.614 77.6166 138.579L77.9575 137.398C78.2832 137.481 78.5711 137.511 78.8211 137.489C79.0711 137.466 79.2927 137.354 79.4859 137.153C79.6829 136.956 79.8628 136.636 80.0257 136.193L80.2757 135.511L77.0484 126.739H78.5029L80.912 133.693H81.0029L83.412 126.739H84.8666L81.162 136.739C80.9954 137.189 80.7889 137.562 80.5427 137.858C80.2965 138.157 80.0105 138.379 79.6847 138.523C79.3628 138.667 78.9991 138.739 78.5938 138.739ZM91.3183 135.466V123.829H95.2501C96.163 123.829 96.9092 123.994 97.4887 124.324C98.0721 124.65 98.5039 125.091 98.7842 125.648C99.0645 126.204 99.2046 126.826 99.2046 127.511C99.2046 128.197 99.0645 128.82 98.7842 129.381C98.5077 129.941 98.0796 130.388 97.5001 130.722C96.9205 131.051 96.1781 131.216 95.2728 131.216H92.4546V129.966H95.2274C95.8524 129.966 96.3543 129.858 96.733 129.642C97.1118 129.426 97.3865 129.134 97.5569 128.767C97.7311 128.396 97.8183 127.977 97.8183 127.511C97.8183 127.045 97.7311 126.629 97.5569 126.261C97.3865 125.894 97.1099 125.606 96.7274 125.398C96.3448 125.186 95.8372 125.079 95.2046 125.079H92.7274V135.466H91.3183ZM104.744 135.648C103.957 135.648 103.265 135.46 102.671 135.085C102.08 134.71 101.618 134.186 101.284 133.511C100.955 132.837 100.79 132.049 100.79 131.148C100.79 130.239 100.955 129.445 101.284 128.767C101.618 128.089 102.08 127.562 102.671 127.187C103.265 126.812 103.957 126.625 104.744 126.625C105.532 126.625 106.222 126.812 106.813 127.187C107.407 127.562 107.869 128.089 108.199 128.767C108.532 129.445 108.699 130.239 108.699 131.148C108.699 132.049 108.532 132.837 108.199 133.511C107.869 134.186 107.407 134.71 106.813 135.085C106.222 135.46 105.532 135.648 104.744 135.648ZM104.744 134.443C105.343 134.443 105.835 134.29 106.222 133.983C106.608 133.676 106.894 133.273 107.08 132.773C107.265 132.273 107.358 131.731 107.358 131.148C107.358 130.564 107.265 130.021 107.08 129.517C106.894 129.013 106.608 128.606 106.222 128.295C105.835 127.985 105.343 127.829 104.744 127.829C104.146 127.829 103.653 127.985 103.267 128.295C102.881 128.606 102.595 129.013 102.409 129.517C102.224 130.021 102.131 130.564 102.131 131.148C102.131 131.731 102.224 132.273 102.409 132.773C102.595 133.273 102.881 133.676 103.267 133.983C103.653 134.29 104.146 134.443 104.744 134.443ZM112.087 123.829V135.466H110.746V123.829H112.087ZM114.543 135.466V126.739H115.884V135.466H114.543ZM115.225 125.284C114.963 125.284 114.738 125.195 114.548 125.017C114.363 124.839 114.27 124.625 114.27 124.375C114.27 124.125 114.363 123.911 114.548 123.733C114.738 123.555 114.963 123.466 115.225 123.466C115.486 123.466 115.709 123.555 115.895 123.733C116.084 123.911 116.179 124.125 116.179 124.375C116.179 124.625 116.084 124.839 115.895 125.017C115.709 125.195 115.486 125.284 115.225 125.284ZM121.885 135.648C121.067 135.648 120.362 135.454 119.771 135.068C119.18 134.682 118.726 134.15 118.408 133.472C118.09 132.793 117.93 132.019 117.93 131.148C117.93 130.261 118.093 129.479 118.419 128.801C118.749 128.119 119.207 127.587 119.794 127.204C120.385 126.818 121.074 126.625 121.862 126.625C122.476 126.625 123.029 126.739 123.521 126.966C124.014 127.193 124.417 127.511 124.732 127.92C125.046 128.329 125.241 128.807 125.317 129.352H123.976C123.874 128.954 123.646 128.602 123.294 128.295C122.946 127.985 122.476 127.829 121.885 127.829C121.362 127.829 120.904 127.966 120.51 128.239C120.12 128.507 119.815 128.888 119.595 129.381C119.379 129.869 119.271 130.443 119.271 131.102C119.271 131.776 119.377 132.364 119.59 132.864C119.805 133.364 120.109 133.752 120.499 134.028C120.893 134.305 121.355 134.443 121.885 134.443C122.234 134.443 122.55 134.382 122.834 134.261C123.118 134.14 123.359 133.966 123.555 133.739C123.752 133.511 123.893 133.239 123.976 132.92H125.317C125.241 133.436 125.054 133.9 124.754 134.312C124.459 134.722 124.067 135.047 123.578 135.29C123.093 135.528 122.529 135.648 121.885 135.648ZM128.141 138.739C127.913 138.739 127.711 138.72 127.533 138.682C127.355 138.648 127.232 138.614 127.163 138.579L127.504 137.398C127.83 137.481 128.118 137.511 128.368 137.489C128.618 137.466 128.84 137.354 129.033 137.153C129.23 136.956 129.41 136.636 129.573 136.193L129.823 135.511L126.595 126.739H128.05L130.459 133.693H130.55L132.959 126.739H134.413L130.709 136.739C130.542 137.189 130.336 137.562 130.09 137.858C129.843 138.157 129.557 138.379 129.232 138.523C128.91 138.667 128.546 138.739 128.141 138.739Z" fill="#CDCDCD"/>
<path d="M31.412 181.466V169.829H32.8211V180.216H38.2302V181.466H31.412ZM43.7757 181.648C42.9878 181.648 42.2965 181.46 41.7018 181.085C41.1109 180.71 40.6488 180.186 40.3154 179.511C39.9859 178.837 39.8211 178.049 39.8211 177.148C39.8211 176.239 39.9859 175.445 40.3154 174.767C40.6488 174.089 41.1109 173.562 41.7018 173.187C42.2965 172.812 42.9878 172.625 43.7757 172.625C44.5635 172.625 45.2529 172.812 45.8438 173.187C46.4385 173.562 46.9007 174.089 47.2302 174.767C47.5635 175.445 47.7302 176.239 47.7302 177.148C47.7302 178.049 47.5635 178.837 47.2302 179.511C46.9007 180.186 46.4385 180.71 45.8438 181.085C45.2529 181.46 44.5635 181.648 43.7757 181.648ZM43.7757 180.443C44.3741 180.443 44.8666 180.29 45.2529 179.983C45.6393 179.676 45.9253 179.273 46.1109 178.773C46.2965 178.273 46.3893 177.731 46.3893 177.148C46.3893 176.564 46.2965 176.021 46.1109 175.517C45.9253 175.013 45.6393 174.606 45.2529 174.295C44.8666 173.985 44.3741 173.829 43.7757 173.829C43.1772 173.829 42.6847 173.985 42.2984 174.295C41.912 174.606 41.626 175.013 41.4404 175.517C41.2548 176.021 41.162 176.564 41.162 177.148C41.162 177.731 41.2548 178.273 41.4404 178.773C41.626 179.273 41.912 179.676 42.2984 179.983C42.6847 180.29 43.1772 180.443 43.7757 180.443ZM53.2998 184.92C52.6521 184.92 52.0953 184.837 51.6294 184.67C51.1634 184.507 50.7752 184.292 50.4646 184.023C50.1578 183.757 49.9134 183.473 49.7316 183.17L50.7998 182.42C50.921 182.579 51.0744 182.761 51.26 182.966C51.4456 183.174 51.6994 183.354 52.0214 183.506C52.3472 183.661 52.7733 183.739 53.2998 183.739C54.0044 183.739 54.5858 183.568 55.0441 183.227C55.5025 182.886 55.7316 182.352 55.7316 181.625V179.852H55.618C55.5195 180.011 55.3794 180.208 55.1975 180.443C55.0195 180.674 54.7619 180.881 54.4248 181.062C54.0915 181.24 53.6407 181.329 53.0725 181.329C52.368 181.329 51.7354 181.163 51.1748 180.829C50.618 180.496 50.1767 180.011 49.8509 179.375C49.529 178.739 49.368 177.966 49.368 177.057C49.368 176.163 49.5252 175.384 49.8396 174.722C50.154 174.055 50.5915 173.54 51.1521 173.176C51.7127 172.809 52.3604 172.625 53.0953 172.625C53.6634 172.625 54.1142 172.72 54.4475 172.909C54.7847 173.095 55.0422 173.307 55.2203 173.545C55.4021 173.78 55.5422 173.973 55.6407 174.125H55.7771V172.739H57.0725V181.716C57.0725 182.466 56.9021 183.076 56.5612 183.545C56.224 184.019 55.7695 184.365 55.1975 184.585C54.6294 184.809 53.9968 184.92 53.2998 184.92ZM53.2544 180.125C53.7922 180.125 54.2468 180.002 54.618 179.756C54.9892 179.509 55.2714 179.155 55.4646 178.693C55.6578 178.231 55.7544 177.678 55.7544 177.034C55.7544 176.405 55.6597 175.85 55.4703 175.369C55.2809 174.888 55.0006 174.511 54.6294 174.239C54.2581 173.966 53.7998 173.829 53.2544 173.829C52.6862 173.829 52.2127 173.973 51.8339 174.261C51.4589 174.549 51.1767 174.936 50.9873 175.42C50.8017 175.905 50.7089 176.443 50.7089 177.034C50.7089 177.64 50.8036 178.176 50.993 178.642C51.1862 179.104 51.4703 179.468 51.8453 179.733C52.224 179.994 52.6937 180.125 53.2544 180.125ZM67.5725 181.648C66.7847 181.648 66.0934 181.46 65.4987 181.085C64.9078 180.71 64.4456 180.186 64.1123 179.511C63.7828 178.837 63.618 178.049 63.618 177.148C63.618 176.239 63.7828 175.445 64.1123 174.767C64.4456 174.089 64.9078 173.562 65.4987 173.187C66.0934 172.812 66.7847 172.625 67.5725 172.625C68.3604 172.625 69.0498 172.812 69.6407 173.187C70.2354 173.562 70.6975 174.089 71.0271 174.767C71.3604 175.445 71.5271 176.239 71.5271 177.148C71.5271 178.049 71.3604 178.837 71.0271 179.511C70.6975 180.186 70.2354 180.71 69.6407 181.085C69.0498 181.46 68.3604 181.648 67.5725 181.648ZM67.5725 180.443C68.171 180.443 68.6634 180.29 69.0498 179.983C69.4362 179.676 69.7222 179.273 69.9078 178.773C70.0934 178.273 70.1862 177.731 70.1862 177.148C70.1862 176.564 70.0934 176.021 69.9078 175.517C69.7222 175.013 69.4362 174.606 69.0498 174.295C68.6634 173.985 68.171 173.829 67.5725 173.829C66.974 173.829 66.4816 173.985 66.0953 174.295C65.7089 174.606 65.4229 175.013 65.2373 175.517C65.0517 176.021 64.9589 176.564 64.9589 177.148C64.9589 177.731 65.0517 178.273 65.2373 178.773C65.4229 179.273 65.7089 179.676 66.0953 179.983C66.4816 180.29 66.974 180.443 67.5725 180.443ZM79.074 177.898V172.739H80.4149V181.466H79.074V179.989H78.983C78.7785 180.432 78.4603 180.809 78.0285 181.119C77.5967 181.426 77.0512 181.579 76.3921 181.579C75.8467 181.579 75.3618 181.46 74.9376 181.222C74.5133 180.979 74.18 180.615 73.9376 180.131C73.6952 179.642 73.574 179.026 73.574 178.284V172.739H74.9149V178.193C74.9149 178.829 75.0929 179.337 75.449 179.716C75.8088 180.095 76.2671 180.284 76.824 180.284C77.1573 180.284 77.4963 180.199 77.841 180.028C78.1895 179.858 78.4811 179.597 78.716 179.244C78.9546 178.892 79.074 178.443 79.074 177.898ZM86.6663 172.739V173.875H82.1436V172.739H86.6663ZM83.4617 170.648H84.8026V178.966C84.8026 179.345 84.8576 179.629 84.9674 179.818C85.0811 180.004 85.225 180.129 85.3992 180.193C85.5773 180.254 85.7648 180.284 85.9617 180.284C86.1095 180.284 86.2307 180.276 86.3254 180.261C86.4201 180.242 86.4958 180.227 86.5526 180.216L86.8254 181.42C86.7345 181.454 86.6076 181.489 86.4447 181.523C86.2818 181.561 86.0754 181.579 85.8254 181.579C85.4466 181.579 85.0754 181.498 84.7117 181.335C84.3519 181.172 84.0526 180.924 83.814 180.591C83.5792 180.257 83.4617 179.837 83.4617 179.329V170.648Z" fill="#CDCDCD"/>
</g>
<defs>
<filter id="filter0_d_356_3089" x="0.00292969" y="0.96582" width="158" height="212" filterUnits="userSpaceOnUse" color-interpolation-filters="sRGB">
<feFlood flood-opacity="0" result="BackgroundImageFix"/>
<feColorMatrix in="SourceAlpha" type="matrix" values="0 0 0 0 0 0 0 0 0 0 0 0 0 0 0 0 0 0 127 0" result="hardAlpha"/>
<feOffset/>
<feGaussianBlur stdDeviation="2"/>
<feColorMatrix type="matrix" values="0 0 0 0 0 0 0 0 0 0 0 0 0 0 0 0 0 0 0.1 0"/>
<feBlend mode="normal" in2="BackgroundImageFix" result="effect1_dropShadow_356_3089"/>
<feBlend mode="normal" in="SourceGraphic" in2="effect1_dropShadow_356_3089" result="shape"/>
</filter>
</defs>
</svg>
